<svg fill="#000" width="27px" height="20px" viewBox="0 0 27 20" xmlns="http://www.w3.org/2000/svg">
  <path d="M26.8062827,10 C26.8062827,10.3935205 26.706558,10.792822 26.5071055,11.1979167 C25.1109379,13.859967 23.2336194,15.9924688 20.8750935,17.5954861 C18.5165676,19.1985034 16.0259418,20 13.4031414,20 C10.7803409,20 8.28971511,19.1956099 5.93118923,17.5868056 C3.57266335,15.9780012 1.6953448,13.8483929 0.299177263,11.1979167 C0.0997247569,10.792822 0,10.3935205 0,10 C0,9.60647951 0.0997247569,9.20717795 0.299177263,8.80208333 C1.6953448,6.15160712 3.57266335,4.02199878 5.93118923,2.41319444 C8.28971511,0.804390104 10.7803409,0 13.4031414,0 C16.0259418,0 18.5165676,0.804390104 20.8750935,2.41319444 C23.2336194,4.02199878 25.1109379,6.15160712 26.5071055,8.80208333 C26.706558,9.20717795 26.8062827,9.60647951 26.8062827,10 Z M13.4554974,16.5445026 C17.0699264,16.5445026 20,13.614429 20,10 C20,6.38557101 17.0699264,3.45549738 13.4554974,3.45549738 C9.84106839,3.45549738 6.91099476,6.38557101 6.91099476,10 C6.91099476,13.614429 9.84106839,16.5445026 13.4554974,16.5445026 Z"></path>
  <circle cx="13.4554974" cy="9.89528796" r="3.29842932"></circle>
</svg>
