<svg width="40" height="44" viewBox="0 0 40 44" fill="none" xmlns="http://www.w3.org/2000/svg">
<mask id="mask0" mask-type="alpha" maskUnits="userSpaceOnUse" x="0" y="0" width="40" height="45">
<path d="M0.246914 14.342C-0.0823045 19.4622 -0.0823045 24.5378 0.246914 29.658C0.356653 31.4389 1.51989 33.1976 3.18793 34.2439C8.14815 37.2937 13.0206 40.4326 17.5857 43.2821C19.1001 44.2393 20.8999 44.2393 22.4143 43.2821C26.9794 40.4326 31.8518 37.2937 36.8121 34.2439C38.5021 33.1976 39.6433 31.4389 39.7531 29.658C40.0823 24.5378 40.0823 19.4622 39.7531 14.342C39.6433 12.5611 38.4801 10.8024 36.8121 9.75613C31.8518 6.68404 26.9794 3.56742 22.4143 0.717936C20.8999 -0.239312 19.1001 -0.239312 17.5857 0.717936C13.0206 3.56742 8.14815 6.7063 3.18793 9.75613C1.51989 10.8247 0.356653 12.5611 0.246914 14.342Z" fill="#39D678"/>
</mask>
<g mask="url(#mask0)">
<mask id="path-2-inside-1" fill="white">
<path d="M0.246914 14.342C-0.0823045 19.4622 -0.0823045 24.5378 0.246914 29.658C0.356653 31.4389 1.51989 33.1976 3.18793 34.2439C8.14815 37.2937 13.0206 40.4326 17.5857 43.2821C19.1001 44.2393 20.8999 44.2393 22.4143 43.2821C26.9794 40.4326 31.8518 37.2937 36.8121 34.2439C38.5021 33.1976 39.6433 31.4389 39.7531 29.658C40.0823 24.5378 40.0823 19.4622 39.7531 14.342C39.6433 12.5611 38.4801 10.8024 36.8121 9.75613C31.8518 6.68404 26.9794 3.56742 22.4143 0.717936C20.8999 -0.239312 19.1001 -0.239312 17.5857 0.717936C13.0206 3.56742 8.14815 6.7063 3.18793 9.75613C1.51989 10.8247 0.356653 12.5611 0.246914 14.342Z"/>
</mask>
<path d="M0.246914 14.342L2.2428 14.4704L2.24313 14.465L0.246914 14.342ZM0.246914 29.658L2.24313 29.535L2.24279 29.5296L0.246914 29.658ZM3.18793 34.2439L2.12518 35.9381L2.13276 35.9429L2.14038 35.9476L3.18793 34.2439ZM17.5857 43.2821L18.6544 41.5915L18.6447 41.5854L17.5857 43.2821ZM22.4143 43.2821L21.3553 41.5854L21.3457 41.5915L22.4143 43.2821ZM36.8121 34.2439L37.8596 35.9476L37.8649 35.9443L36.8121 34.2439ZM39.7531 29.658L37.7572 29.5296L37.7569 29.535L39.7531 29.658ZM39.7531 14.342L37.7569 14.465L37.7572 14.4704L39.7531 14.342ZM36.8121 9.75613L37.8748 8.06183L37.8651 8.05583L36.8121 9.75613ZM22.4143 0.717936L21.3456 2.40855L21.3553 2.41456L22.4143 0.717936ZM17.5857 0.717936L18.6447 2.41458L18.6543 2.40852L17.5857 0.717936ZM3.18793 9.75613L2.14038 8.05242L2.12465 8.06209L2.1091 8.07205L3.18793 9.75613ZM-1.74896 14.2137C-2.08368 19.4193 -2.08368 24.5807 -1.74896 29.7863L2.24279 29.5296C1.91907 24.495 1.91907 19.505 2.24279 14.4704L-1.74896 14.2137ZM-1.7493 29.781C-1.59313 32.3154 0.0112887 34.6122 2.12518 35.9381L4.25068 32.5496C3.02849 31.783 2.30644 30.5625 2.24313 29.535L-1.7493 29.781ZM2.14038 35.9476C7.10332 38.9991 11.9186 42.1023 16.5267 44.9787L18.6447 41.5854C14.1226 38.7628 9.19298 35.5883 4.23547 32.5401L2.14038 35.9476ZM16.5171 44.9726C18.6842 46.3425 21.3158 46.3425 23.4829 44.9726L21.3457 41.5915C20.4839 42.1362 19.5161 42.1362 18.6543 41.5915L16.5171 44.9726ZM23.4733 44.9787C28.0814 42.1023 32.8967 38.9991 37.8596 35.9476L35.7645 32.5401C30.807 35.5883 25.8774 38.7628 21.3553 41.5854L23.4733 44.9787ZM37.8649 35.9443C40.0204 34.6098 41.5938 32.3047 41.7493 29.781L37.7569 29.535C37.6929 30.5731 36.9837 31.7853 35.7593 32.5434L37.8649 35.9443ZM41.749 29.7863C42.0837 24.5807 42.0837 19.4193 41.749 14.2137L37.7572 14.4704C38.0809 19.505 38.0809 24.495 37.7572 29.5296L41.749 29.7863ZM41.7493 14.219C41.5931 11.6846 39.9887 9.38782 37.8748 8.06186L35.7493 11.4504C36.9715 12.217 37.6936 13.4375 37.7569 14.465L41.7493 14.219ZM37.8651 8.05583C32.8944 4.97721 28.0782 1.8956 23.4733 -0.978685L21.3553 2.41456C25.8807 5.23924 30.8093 8.39086 35.759 11.4564L37.8651 8.05583ZM23.4829 -0.972647C21.3158 -2.34245 18.6842 -2.34245 16.5171 -0.972647L18.6543 2.40852C19.5161 1.86383 20.4839 1.86383 21.3457 2.40852L23.4829 -0.972647ZM16.5267 -0.978685C11.9186 1.89765 7.10332 5.00091 2.14038 8.05242L4.23547 11.4599C9.19298 8.41168 14.1226 5.23718 18.6447 2.41456L16.5267 -0.978685ZM2.1091 8.07205C0.0206594 9.40992 -1.59249 11.6742 -1.7493 14.219L2.24313 14.465C2.3058 13.448 3.01912 12.2395 4.26676 11.4402L2.1091 8.07205Z" fill="#39D678" mask="url(#path-2-inside-1)"/>
<path d="M-1.69495 27.2525H10.1037C10.5707 27.2525 10.9755 26.9293 11.0789 26.4739L14.2078 12.6942C14.4551 11.6051 16.0307 11.6792 16.1746 12.7868L18.8687 33.5184C19.0145 34.6404 20.6187 34.6954 20.8409 33.586L23.4149 20.7348C23.6193 19.7145 25.052 19.646 25.3528 20.6422L27.1336 26.5415C27.2611 26.9637 27.65 27.2525 28.0909 27.2525H41.6949" stroke="#39D678" stroke-width="2" stroke-linecap="round" stroke-linejoin="round"/>
</g>
</svg>
