<svg width="59" height="64" viewBox="0 0 59 64" fill="none" xmlns="http://www.w3.org/2000/svg">
<g clip-path="url(#clip0)">
<path d="M0.364198 20.8611C-0.121399 28.3086 -0.121399 35.6914 0.364198 43.1389C0.526063 45.7293 2.24184 48.2874 4.70219 49.8093C12.0185 54.2454 19.2053 58.811 25.939 62.9557C28.1727 64.3481 30.8273 64.3481 33.061 62.9557C39.7947 58.811 46.9815 54.2454 54.2978 49.8093C56.7905 48.2874 58.4739 45.7293 58.6358 43.1389C59.1214 35.6914 59.1214 28.3086 58.6358 20.8611C58.4739 18.2707 56.7582 15.7126 54.2978 14.1907C46.9815 9.72223 39.7947 5.18897 33.061 1.04427C30.8273 -0.34809 28.1727 -0.34809 25.939 1.04427C19.2053 5.18897 12.0185 9.75461 4.70219 14.1907C2.24184 15.745 0.526063 18.2707 0.364198 20.8611Z" fill="#39D678"/>
<path d="M1 39.64H15.7847C16.2506 39.64 16.6547 39.3183 16.7592 38.8644L22.0478 15.8961C22.2978 14.8104 23.8682 14.8853 24.0138 15.9898L28.7027 51.5718C28.8501 52.6909 30.4494 52.7464 30.6741 51.6402L35.4098 28.3242C35.6163 27.3079 37.0425 27.2389 37.346 28.2305L40.6222 38.9327C40.7508 39.353 41.1389 39.64 41.5784 39.64H59" stroke="white" stroke-width="3" stroke-linecap="round" stroke-linejoin="round"/>
</g>
<defs>
<clipPath id="clip0">
<rect width="59" height="64" fill="white"/>
</clipPath>
</defs>
</svg>
