<svg stroke="none" fill="#000" xmlns="http://www.w3.org/2000/svg" height="30px" width="89px" viewBox="0 0 89 30">
  <path d="m3.69 5.24l8.81-5.1v-.005c.3-.180.7-.180 1 0l8.2 4.74c0 .73 0 1.45.1 2.1 0 .73 0 1.39.1 1.95v1.27s-.3.2-.3.3c.1.4.1.9.1.9-.3.1-.9.5-1.4.9-.7.8 0 4 .3 4.7 0 .1.1.1.2 0l1.3 4.5c-.2.5-.4.6-.6.6 0 0 .1-.1-.2-.1-.3.1-1.2.1-1 .7.2.5 1.2.2 1.2.2s.2-.1.1-.1v-.1c.4 0 .7-.4.9-.7.2.2.6.5.7.7.1.1.3.2.7.3.4 0 .9-.1.7-.6-.1-.4-.9-.3-1.2-.2 0-.1-.4-.2-.7-.7l1.6-5h.1c.4-1.6.5-2.4.4-3.1 0-.5-.2-.9-.4-1.2-.4-.5-1.6-.8-1.6-.8l-.1-.9c0-.1-.2-.3-.3-.3v-.1c-.1-.28-.1-.71-.1-1.23 0-.70-.1-1.56-.1-2.5v-1.21l3.3 1.93c.3.18.5.51.5.86v14-.1c0 .3-.2.7-.5.8l-12.5 7.3-12.5-7.3h-.001c-.309-.1-.499-.5-.499-.8l1.91e-13-14c0-.30.190-.63.499-.81l2.61-1.52c.08 1.88.46 7.53.66 10.3-.59.1-1.13.4-1.56.8-.67.6-1.03 1.5-.96 2.4.11 1.7 1.55 2.9 3.19 2.8 1.37-.1 2.49-1.1 2.74-2.5.05-.2.06-.5.04-.7-.11-1.6-1.34-2.8-2.85-2.8-.19-2.9-.59-8.82-.68-10.7zm.11 11.2c.02.3.03.5.05.7-.86.1-1.5.9-1.5 1.8 0 1 .83 1.8 1.86 1.8s1.86-.8 1.86-1.8-.71-1.7-1.62-1.8c-.01-.2-.02-.5-.04-.7 1.24.1 2.25 1.1 2.34 2.3.01.2 0 .4-.04.6-.20 1.1-1.14 2-2.3 2.1-1.39.1-2.6-1-2.69-2.3-.06-.8.24-1.5.80-2.1.35-.3.79-.5 1.28-.6zm17.4.5h.1s0-.2-.1-.5c-.2-.8-.6-1.7-.5-2.9 0-1.1 1.2-1.4 1.7-1.4.7-.1 2 .4 1.7 1.9-.1.7-.2 1.5-.4 2.3h.1c-.2.6-1 3.3-1.4 4.4-.3-.9-.9-3-1.2-3.8zm-12.1-11.4c-2.05 0-3.71 1.64-3.71 3.67 0 2.07 1.66 3.67 3.71 3.67 2.07 0 3.67-1.6 3.67-3.67 0-2.03-1.6-3.67-3.67-3.67zm7.57 0c-2 0-3.7 1.64-3.7 3.67 0 2.07 1.7 3.67 3.7 3.67 2.1 0 3.8-1.6 3.8-3.67 0-2.03-1.7-3.67-3.8-3.67zm-8.04 11s1.84.6 4.84.6c3 .1 4.3-.5 4.9-.7.2-.1.1-.4-.2-.3-.5.2-2.1.7-4.7.7-2.7 0-4.74-.7-4.74-.7-.37-.1-.54.2-.10.4zm7.94 1s-.5.4-1 .5c-.5.2-4.4.1-4.9-.1-.4-.1-.6-.2-.88-.6-.18-.2-.33-.1-.19.2.29.4.57.7.97.8.6.2 4.4.3 5 .1.3 0 1.1-.8 1.2-.8.1-.1 0-.3-.2-.1zm-8.02-2.1c-.02 0-.21.1-.27.1-.39.3-.41.8.12 1.6.10.1.30 0 .20-.2-.26-.3-.37-.6-.36-.8.01-.4.36-.4.36-.4.25-.1.16-.3-.05-.3zm9.62.3s.5.1.4.6c0 .2-.3.5-.3.6-.2.1 0 .3.1.1 0 0 .3-.3.4-.6s0-.5-.3-.7c0-.1-.2-.2-.3-.2s-.2.2 0 .2zm-9.07-3.2c-1.88 0-3.4-1.5-3.4-3.37 0-1.86 1.52-3.37 3.4-3.37 1.87 0 3.37 1.51 3.37 3.37 0 1.87-1.5 3.37-3.37 3.37zm-1.05-3.28c.67 0 1.22-.53 1.22-1.19 0-.65-.55-1.18-1.22-1.18s-1.22.53-1.22 1.18c0 .66.55 1.19 1.22 1.19zm8.62 3.28c-1.9 0-3.4-1.5-3.4-3.37 0-1.86 1.5-3.37 3.4-3.37s3.4 1.51 3.4 3.37c0 1.87-1.5 3.37-3.4 3.37zm-1.1-3.16c.7 0 1.2-.53 1.2-1.19 0-.65-.5-1.18-1.2-1.18-.6 0-1.2.53-1.2 1.18 0 .66.6 1.19 1.2 1.19z"/>
  <path d="m37.1 19v-9.05h1.9c.9 0 1.6.05 2.1.25.6.2 1.1.5 1.6.9.9.9 1.4 2 1.4 3.4s-.5 2.5-1.5 3.4c-.5.4-1 .7-1.5.8-.5.2-1.2.3-2.1.3h-1.9zm1.3-1.3h.7c.6 0 1.1 0 1.5-.2.4-.1.8-.3 1.1-.6.7-.6 1-1.4 1-2.4s-.3-1.8-1-2.4c-.6-.6-1.5-.9-2.6-.9h-.7v6.5zm7.2-3.3c0-1.2.4-2.3 1.4-3.2.9-1 2-1.42 3.3-1.42s2.4.42 3.3 1.42c1 .9 1.4 2 1.4 3.3s-.4 2.4-1.4 3.3c-.9.9-2 1.4-3.4 1.4-1.1 0-2.2-.4-3.1-1.2-1-.9-1.5-2.1-1.5-3.6zm1.3.1c0 1 .4 1.8 1 2.4.7.7 1.5 1 2.4 1s1.7-.3 2.4-1c.6-.7.9-1.5.9-2.4 0-1-.3-1.8-.9-2.4-.7-.7-1.5-1-2.4-1s-1.7.3-2.4 1c-.6.6-1 1.4-1 2.4zm16.7-4.1v1.7c-.7-.7-1.6-1-2.4-1-.9 0-1.7.3-2.4 1-.6.6-.9 1.4-.9 2.4s.3 1.8.9 2.4c.7.7 1.5 1 2.4 1 .5 0 .9-.1 1.2-.2.2-.1.4-.2.6-.4.2-.1.4-.3.6-.4v1.6c-.7.4-1.6.7-2.4.7-1.3 0-2.4-.5-3.3-1.4s-1.4-2-1.4-3.3c0-1.1.4-2.2 1.1-3.1 1-1.1 2.2-1.62 3.7-1.62.8 0 1.6.22 2.3.62zm4.5.8v7.8h-1.4v-7.8h-2.1v-1.25h5.6v1.25h-2.1zm2.8 3.2c0-1.2.4-2.3 1.4-3.2.9-1 2-1.42 3.3-1.42s2.4.42 3.3 1.42c.9.9 1.4 2 1.4 3.3s-.5 2.4-1.4 3.3-2 1.4-3.4 1.4c-1.1 0-2.2-.4-3.1-1.2-1-.9-1.5-2.1-1.5-3.6zm1.3.1c0 1 .4 1.8 1 2.4.7.7 1.5 1 2.4 1s1.7-.3 2.4-1c.6-.7.9-1.5.9-2.4 0-1-.3-1.8-.9-2.4-.7-.7-1.5-1-2.4-1-1 0-1.8.3-2.4 1-.6.6-1 1.4-1 2.4zm13.1.6l2.8 3.9h-1.7l-2.5-3.7h-.3v3.7h-1.4v-9.05h1.6c1.2 0 2.1.25 2.6.65.6.5.9 1.2.9 2 0 .6-.2 1.2-.5 1.7-.4.4-.9.7-1.5.8zm-1.7-1h.4c1.3 0 2-.5 2-1.5 0-.9-.6-1.4-1.9-1.4h-.5v2.9z"/>
</svg>
