<svg stroke="none" fill="#000" width="155" height="40" viewBox="0 0 115 40" xmlns="http://www.w3.org/2000/svg">
  <path d="m4.79 6.8l11.6-6.71c.31-.18.693-.18 1 0l10.8 6.24c.0473.959.0926 1.89.134 2.74.0445.938.0853 1.8.119 2.52.0324.681.0582 1.24.0764 1.63-.0138.00266-.0273.00544-.0407.00834-.0168.00334-.365.245-.333.44.075.465.061 1.15.061 1.15-.416.104-1.16.593-1.75 1.18-.972.967-.00702 5.16.365 6.11.013.0331.0958.0294.206.00765l1.76 5.75c-.341.661-.633.838-.798.881l-.00309-.0159s.0375-.125-.314-.114c-.352.01-1.53.0245-1.26.84.268.652 1.6.262 1.6.262s.143-.0658.129-.168l-.00382-.0197c.508-.115.899-.605 1.1-.92.302.262.747.645.982.833.092.178.335.337.877.39.473.0461 1.12-.0902.889-.774-.184-.553-1.13-.411-1.51-.308-.0408-.0178-.532-.242-.929-.902l2.05-6.48c.0529.0155.0859.0253.0859.0253.495-2.05.633-3.09.59-3.94-.0335-.668-.265-1.2-.59-1.64-.491-.673-2.06-1.05-2.06-1.05l-.115-1.17c-.01-.114-.303-.341-.37-.361-.0256-.00763-.0513-.0142-.077-.0197.00166-.0195.00207-.04.00109-.0615-.0188-.404-.0406-.964-.0659-1.64-.0338-.911-.073-2.03-.116-3.25-.0182-.516-.0364-1.04-.0546-1.57l4.47 2.59c.309.179.499.509.499.865v18.4c0 .357-.19.686-.499.865l-16.4 9.49-16.4-9.49c-.309-.179-.499-.509-.499-.865l-1.02e-14-18.4h4.44e-16c0-.357.19-.686.499-.865l3.54-2.05c.101 2.43.599 9.75.851 13.4-.761.12-1.46.461-2.02.977-.868.799-1.34 1.95-1.25 3.16.151 2.16 2.01 3.78 4.15 3.63 1.78-.124 3.23-1.44 3.55-3.19.0588-.323.0774-.654.0542-.986-.139-1.99-1.74-3.54-3.7-3.64-.257-3.76-.776-11.4-.887-13.8zm.144 14.5c.0234.34.0436.632.0596.866-1.11.217-1.94 1.18-1.94 2.34 0 1.32 1.08 2.39 2.41 2.39 1.33 0 2.41-1.07 2.41-2.39 0-1.21-.912-2.21-2.09-2.37-.016-.234-.0363-.532-.0602-.882 1.62.108 2.93 1.39 3.04 3.02.0192.274.00384.547-.0446.814-.266 1.45-1.49 2.56-2.99 2.66-1.81.126-3.37-1.23-3.49-3.02-.0697-.997.32-1.95 1.05-2.62.456-.42 1.02-.704 1.66-.817zm22.6.648c.0741-.0255.122-.0433.122-.0433s-.0577-.231-.143-.59c-.237-1-.731-2.19-.684-3.73s1.54-1.93 2.2-1.95c.951-.0279 2.64.597 2.3 2.59-.146.868-.33 1.85-.55 2.94.00624-.003.0376.00232.0848.013-.216.696-1.32 4.27-1.76 5.69-.385-1.19-1.25-3.87-1.57-4.92zm-15.7-14.9c-2.66 0-4.82 2.14-4.82 4.77 0 2.64 2.16 4.78 4.82 4.78 2.66 0 4.82-2.14 4.82-4.78 0-2.64-2.16-4.77-4.82-4.77zm9.87 0c-2.66 0-4.82 2.14-4.82 4.78 0 2.64 2.16 4.78 4.82 4.78s4.82-2.14 4.82-4.78c0-2.64-2.16-4.78-4.82-4.78zm-10.5 14.3c.0075.00227 2.37.843 6.26.863 3.89.0199 5.66-.676 6.35-.944.314-.122.146-.55-.246-.378-.605.265-2.64.827-6.1.827-3.46 0-6.12-.825-6.13-.827-.477-.206-.695.287-.128.459zm10.3 1.28c-.00584.00509-.57.523-1.33.753-.653.198-5.63.0847-6.3-.126-.484-.152-.752-.324-1.15-.827-.229-.288-.431-.072-.252.192.378.557.765.984 1.31 1.15.726.229 5.63.327 6.47.133.315-.0731 1.45-1.03 1.48-1.06.155-.155 0-.418-.229-.218zm-10.4-2.65c-.0265.004-.283.108-.361.162-.505.356-.522.968.156 1.96.132.194.393 0 .26-.181-.335-.458-.472-.826-.464-1.1.0141-.486.462-.537.473-.539.315-.0492.198-.347-.0651-.307zm12.4.405c.00349.00121.657.0956.573.737-.0406.312-.407.722-.409.723-.238.158.0538.404.21.236.0114-.0123.402-.48.496-.845.107-.421-.0218-.686-.367-.932-.0849-.0605-.363-.204-.389-.211-.231-.0653-.348.211-.114.293zm-11.7-4.18c-2.44 0-4.42-1.96-4.42-4.38 0-2.42 1.98-4.38 4.42-4.38 2.44 0 4.42 1.96 4.42 4.38 0 2.42-1.98 4.38-4.42 4.38zm-1.36-4.27c.872 0 1.58-.688 1.58-1.54 0-.849-.707-1.54-1.58-1.54-.872 0-1.58.688-1.58 1.54 0 .849.707 1.54 1.58 1.54zm11.2 4.27c-2.44 0-4.42-1.96-4.42-4.38 0-2.42 1.98-4.38 4.42-4.38 2.44 0 4.42 1.96 4.42 4.38 0 2.42-1.98 4.38-4.42 4.38zm-1.4-4.11c.872 0 1.58-.688 1.58-1.54 0-.849-.707-1.54-1.58-1.54-.872 0-1.58.688-1.58 1.54 0 .849.707 1.54 1.58 1.54z"/>
  <path d="m48.1 24.7v-11.7h2.46c1.18 0 2.11.117 2.8.35.735.228 1.4.616 2 1.16 1.21 1.11 1.82 2.56 1.82 4.36 0 1.81-.631 3.27-1.89 4.38-.634.558-1.3.946-1.99 1.16-.649.218-1.57.327-2.76.327h-2.43zm1.77-1.67h.799c.796 0 1.46-.0837 1.99-.251.527-.178 1-.459 1.43-.844.872-.796 1.31-1.83 1.31-3.11 0-1.29-.431-2.33-1.29-3.13-.776-.715-1.92-1.07-3.43-1.07h-.799v8.41zm9.24-4.26c0-1.65.606-3.07 1.82-4.26 1.21-1.19 2.66-1.78 4.35-1.78 1.67 0 3.11.598 4.31 1.8 1.2 1.2 1.8 2.63 1.8 4.31 0 1.69-.604 3.12-1.81 4.3-1.21 1.18-2.68 1.77-4.39 1.77-1.52 0-2.88-.525-4.09-1.57-1.33-1.16-1.99-2.68-1.99-4.56zm1.79.0228c0 1.3.436 2.37 1.31 3.2.867.837 1.87 1.26 3.01 1.26 1.23 0 2.27-.426 3.12-1.28.847-.862 1.27-1.91 1.27-3.15 0-1.25-.418-2.3-1.26-3.15-.832-.852-1.86-1.28-3.09-1.28-1.22 0-2.25.426-3.1 1.28-.842.842-1.26 1.88-1.26 3.12zm21.7-5.21v2.1c-1.02-.857-2.08-1.29-3.18-1.29-1.21 0-2.22.434-3.05 1.3-.832.862-1.25 1.92-1.25 3.16 0 1.23.416 2.27 1.25 3.12.832.847 1.85 1.27 3.06 1.27.624 0 1.15-.101 1.59-.304.243-.101.496-.238.757-.411.261-.172.536-.38.825-.624v2.14c-1.01.573-2.08.86-3.2.86-1.68 0-3.11-.586-4.3-1.76-1.18-1.18-1.77-2.61-1.77-4.28 0-1.5.494-2.83 1.48-4 1.22-1.44 2.79-2.15 4.72-2.15 1.05 0 2.07.287 3.06.86zm5.76 1.03v10.1h-1.77v-10.1h-2.7v-1.67h7.17v1.67h-2.69zm3.6 4.15c0-1.65.606-3.07 1.82-4.26 1.21-1.19 2.66-1.78 4.35-1.78 1.67 0 3.11.598 4.31 1.8 1.2 1.2 1.8 2.63 1.8 4.31 0 1.69-.604 3.12-1.81 4.3-1.21 1.18-2.68 1.77-4.39 1.77-1.52 0-2.88-.525-4.09-1.57-1.33-1.16-1.99-2.68-1.99-4.56zm1.79.0228c0 1.3.436 2.37 1.31 3.2.867.837 1.87 1.26 3.01 1.26 1.23 0 2.27-.426 3.12-1.28.847-.862 1.27-1.91 1.27-3.15 0-1.25-.418-2.3-1.26-3.15-.832-.852-1.86-1.28-3.09-1.28-1.22 0-2.25.426-3.1 1.28-.842.842-1.26 1.88-1.26 3.12zm17 .898l3.64 5.01h-2.17l-3.35-4.81h-.32v4.81h-1.77v-11.7h2.08c1.55 0 2.67.292 3.36.875.761.649 1.14 1.51 1.14 2.57 0 .832-.238 1.55-.715 2.15-.477.598-1.11.981-1.89 1.15zm-2.21-1.35h.563c1.68 0 2.52-.642 2.52-1.92 0-1.2-.817-1.8-2.45-1.8h-.631v3.73z"/>
</svg>
