<svg width="123" height="18" viewBox="0 0 123 18" fill="none" xmlns="http://www.w3.org/2000/svg">
<path fill-rule="evenodd" clip-rule="evenodd" d="M43.4954 16.4564H40.6254L33.4826 8.27648V16.4564H29.7798V1.54407H32.6063L39.7926 9.94356V1.54407H43.4954V16.4564Z" fill="white"/>
<path fill-rule="evenodd" clip-rule="evenodd" d="M47.4461 10.097H51.784C51.587 8.9347 50.8201 8.32035 49.6808 8.32035C48.4756 8.32035 47.7091 9.02268 47.4461 10.097ZM55.0514 12.1142L55.0313 12.1802H47.4923C47.7776 13.1449 48.5221 13.8901 49.8804 13.8901C50.6256 13.8901 51.1951 13.6053 51.502 13.1229H55.0074C54.5035 15.316 52.4659 16.6971 49.8368 16.6971C46.3529 16.6971 44.0308 14.3729 44.0308 11.1274C44.0308 7.90402 46.2874 5.57898 49.6833 5.57898C52.7728 5.57898 55.1169 7.70606 55.1169 10.9079C55.1169 11.3026 55.1169 11.7198 55.0514 12.1142Z" fill="white"/>
<path fill-rule="evenodd" clip-rule="evenodd" d="M63.6876 12.7721V9.48302C63.0306 8.71508 62.2634 8.47428 61.4745 8.47428C60.0283 8.47428 58.9769 9.65822 58.9769 11.1277C58.9769 12.5969 60.0283 13.7592 61.4745 13.7592C62.2634 13.7592 63.0306 13.5396 63.6876 12.7721ZM67.2377 16.4561H63.6883V15.8637C62.8994 16.3681 61.9356 16.6757 60.7743 16.6757C57.9042 16.6757 55.4941 14.285 55.4941 11.1276C55.4941 7.94737 57.9042 5.5791 60.7743 5.5791C61.9356 5.5791 62.8994 5.88628 63.6883 6.39065V5.82067H67.2377V16.4561Z" fill="white"/>
<path fill-rule="evenodd" clip-rule="evenodd" d="M75.2683 9.02242C73.5376 9.08803 72.4419 9.54841 71.6095 10.382V16.4564H68.0601V5.82061H71.6095V6.96057C72.5517 6.14902 73.691 5.64465 75.2683 5.64465V9.02242Z" fill="white"/>
<path fill-rule="evenodd" clip-rule="evenodd" d="M86.8789 4.81184V1.5448H75.7681V16.4575H79.4728V11.1938H85.0284V11.129C85.0284 9.95415 85.3133 8.88131 85.8225 7.96852H79.4728V4.81184H86.8789Z" fill="white"/>
<path fill-rule="evenodd" clip-rule="evenodd" d="M104.769 9.02242C103.039 9.08803 101.943 9.54841 101.11 10.382V16.4564H97.561V5.82061H101.11V6.96057C102.053 6.14902 103.192 5.64465 104.769 5.64465V9.02242Z" fill="white"/>
<path fill-rule="evenodd" clip-rule="evenodd" d="M122.999 10.382V16.4564H119.427V10.9519C119.427 9.43882 118.704 8.71488 117.521 8.71488C116.973 8.71488 116.426 8.95607 115.9 9.59241C115.922 9.85522 115.944 10.1188 115.944 10.382V16.4564H112.394V10.9519C112.394 9.43882 111.649 8.71488 110.488 8.71488C109.941 8.71488 109.414 8.97844 108.888 9.65802V16.4564H105.339V5.82062H108.888V6.45659C109.612 5.84224 110.357 5.49146 111.54 5.49146C112.876 5.49146 114.015 5.99621 114.804 6.91697C115.922 5.92984 116.995 5.49146 118.573 5.49146C121.114 5.49146 122.999 7.35573 122.999 10.382Z" fill="white"/>
<path fill-rule="evenodd" clip-rule="evenodd" d="M93.7722 11.1489C93.7722 9.76773 92.8083 8.64902 91.3841 8.64902C89.9379 8.64902 88.974 9.76773 88.974 11.1489C88.974 12.5748 89.9379 13.7147 91.3841 13.7147C92.8083 13.7147 93.7722 12.5748 93.7722 11.1489ZM97.1236 11.1274C97.1236 14.3729 94.7136 16.7851 91.3612 16.7851C88.0092 16.7851 85.5991 14.3729 85.5991 11.1274C85.5991 7.92564 88.0092 5.57898 91.3612 5.57898C94.7136 5.57898 97.1236 7.92564 97.1236 11.1274Z" fill="white"/>
<path fill-rule="evenodd" clip-rule="evenodd" d="M18.2078 14.0339L13.4297 7.7698V1.29222H17.3784C17.8365 1.29222 18.2078 1.66424 18.2078 2.12273V14.0339ZM17.426 16.6957H13.8493C13.0446 16.6957 12.2857 16.3206 11.7962 15.6808L1.55189 2.29376C1.23817 1.88382 1.53029 1.29222 2.04596 1.29222H5.60899C6.41336 1.29222 7.17189 1.6669 7.66141 2.30552L17.9197 15.6937C18.2334 16.1033 17.9417 16.6957 17.426 16.6957ZM6.03264 16.6958H2.0839C1.62583 16.6958 1.25452 16.3237 1.25452 15.8653V3.91772L6.03264 10.2061V16.6958ZM17.3518 0H12.8461C12.4903 0 12.1993 0.291246 12.1993 0.64734V6.17002L8.66244 1.52108C7.93308 0.562773 6.7987 0 5.59499 0H2.09864C0.939633 0 0 0.940482 0 2.10054V15.8998C0 17.0599 0.939633 18 2.09864 18H6.61646C6.97375 18 7.26322 17.7106 7.26322 17.353V11.7723L10.7812 16.4596C11.5098 17.4296 12.6513 18 13.8638 18H17.3518C18.5108 18 19.4504 17.0599 19.4504 15.8998V2.10054C19.4504 0.940482 18.5108 0 17.3518 0Z" fill="white"/>
</svg>
