<?xml version="1.0" encoding="utf-8"?>
<!-- Generator: Adobe Illustrator 18.0.0, SVG Export Plug-In . SVG Version: 6.00 Build 0)  -->
<!DOCTYPE svg PUBLIC "-//W3C//DTD SVG 1.1//EN" "http://www.w3.org/Graphics/SVG/1.1/DTD/svg11.dtd">
<svg version="1.1" id="Layer_1" xmlns="http://www.w3.org/2000/svg" xmlns:xlink="http://www.w3.org/1999/xlink" x="0px" y="0px"
	 viewBox="0 0 202.2 62.4" style="enable-background:new 0 0 202.2 62.4;" xml:space="preserve">
<style type="text/css">
	.st0{fill:#ED1828;}
	.st1{fill:#797A7C;}
</style>
<g>
	<g>
		<path class="st0" d="M54.3,10.3c-0.5,2.8-2.4,5.1-4.9,6.2C48.6,17,48,18,48,19.1v23.3c0,1.2,0.8,2.3,1.8,2.8
			c2.5,1.3,4.4,3.8,4.7,6.8c5-5.5,8-12.8,8-20.8C62.4,23.1,59.3,15.8,54.3,10.3z"/>
		<path class="st0" d="M12.1,45.2L12.1,45.2c1-0.4,1.7-1.5,1.7-2.8V31.8c0-1.1-0.6-2.2-1.5-2.7c-0.1,0-0.1-0.1-0.2-0.1c0,0,0,0,0,0
			h0c-2.7-1.4-4.6-4.3-4.6-7.6c0-4.7,3.9-8.6,8.6-8.6c4.7,0,8.6,3.9,8.6,8.6c0,1.1-0.2,2.1-0.6,3.2h0c-0.2,0.9,0,2.2,0.7,3
			l15.4,15.7h0c0.6,0.6,1.4,0.9,2.3,0.9c0.2,0,0.5,0,0.7-0.1c0.3-0.5,0.4-1.1,0.4-1.7V19.1c0-1.1-0.5-2.2-1.4-2.7
			c-0.1,0-0.1-0.1-0.2-0.1c0,0,0,0,0,0h0c-2.7-1.5-4.6-4.3-4.6-7.6c0-2.9,1.5-5.5,3.7-7.1C38,0.6,34.7,0,31.2,0C14,0,0,14,0,31.2
			C0,39,2.9,46.1,7.6,51.6C8,48.8,9.7,46.5,12.1,45.2z"/>
		<path class="st0" d="M45.9,12.9c2.3,0,4.2-1.9,4.2-4.2s-1.9-4.2-4.2-4.2c-2.3,0-4.2,1.9-4.2,4.2S43.6,12.9,45.9,12.9z"/>
		<path class="st1" d="M41.7,52.9c0,2.3,1.9,4.2,4.2,4.2c2.3,0,4.2-1.9,4.2-4.2c0-2.3-1.9-4.2-4.2-4.2
			C43.6,48.7,41.7,50.5,41.7,52.9z"/>
		<path class="st0" d="M37.4,52.8c0-1.1,0.2-2.1,0.6-3l0,0c0.1-0.4,0.2-0.7,0.2-1.1c0-0.9-0.4-1.7-1-2.3l0,0L21.7,30.6
			c-1.4-1.4-3.5-1.2-3.5,1.2v10.6c0,1.2,0.7,2.3,1.8,2.8c2.8,1.4,4.7,4.3,4.7,7.6c0,3.3-1.8,6.1-4.5,7.5c3.4,1.3,7.1,2,11,2
			c3.8,0,7.4-0.7,10.8-1.9C39.2,59,37.4,56.1,37.4,52.8z"/>
		<path class="st0" d="M16.1,48.7c-2.3,0-4.2,1.9-4.2,4.2c0,2.3,1.9,4.2,4.2,4.2c2.3,0,4.2-1.9,4.2-4.2
			C20.3,50.5,18.4,48.7,16.1,48.7z"/>
		<path class="st1" d="M20.3,21.4c0-2.3-1.9-4.2-4.2-4.2c-2.3,0-4.2,1.9-4.2,4.2s1.9,4.2,4.2,4.2C18.4,25.6,20.3,23.7,20.3,21.4z"/>
	</g>
	<g>
		<path class="st1" d="M79.8,39.7V29.7c0-4.1-1.5-6.2-4.5-6.2c-1.7,0-3,0.6-4.1,1.8c-1.1,1.2-1.6,2.7-1.6,4.5v9.9h-1.6V22.4h1.6v3.1
			h0.1c1.3-2.4,3.2-3.6,5.9-3.6c1.9,0,3.3,0.6,4.3,1.9c1,1.2,1.5,3,1.5,5.3v10.5H79.8z"/>
		<path class="st1" d="M86.9,31.1c0,2.4,0.5,4.2,1.6,5.6c1.1,1.3,2.6,2,4.5,2c1.9,0,3.8-0.7,5.7-2.1v1.7c-1.8,1.3-3.8,1.9-6,1.9
			c-2.2,0-4-0.8-5.4-2.4c-1.4-1.6-2.1-3.9-2.1-6.8c0-2.5,0.7-4.6,2.1-6.4c1.4-1.7,3.3-2.6,5.6-2.6c2.1,0,3.8,0.8,4.9,2.3
			c1.1,1.5,1.7,3.6,1.7,6.2v0.7H86.9z M98.1,29.7c-0.1-2-0.5-3.5-1.4-4.6c-0.9-1.1-2.1-1.7-3.7-1.7c-1.6,0-3,0.5-4,1.6
			c-1.1,1.1-1.7,2.6-2,4.7H98.1z"/>
		<path class="st1" d="M114.3,39.7v-3.5h-0.1c-0.6,1.2-1.4,2.1-2.4,2.8c-1.1,0.7-2.2,1.1-3.5,1.1c-1.6,0-2.9-0.5-3.9-1.4
			c-1-0.9-1.4-2.1-1.4-3.5c0-3,2-4.8,6-5.5l5.3-0.8c0-3.7-1.4-5.6-4.2-5.6c-1.9,0-3.7,0.8-5.5,2.3v-1.9c0.6-0.5,1.5-0.9,2.6-1.3
			c1.1-0.4,2.1-0.5,3.1-0.5c1.8,0,3.2,0.6,4.1,1.7c1,1.1,1.5,2.7,1.5,4.8v11.2H114.3z M109.6,31.1c-1.8,0.3-3.1,0.7-3.8,1.3
			c-0.7,0.6-1.1,1.5-1.1,2.8c0,1,0.3,1.9,1,2.5c0.7,0.7,1.6,1,2.8,1c1.7,0,3-0.6,4.1-1.8c1.1-1.2,1.7-2.8,1.7-4.8v-1.7L109.6,31.1z"
			/>
		<path class="st1" d="M129.2,24.1c-0.5-0.4-1.1-0.6-1.8-0.6c-1.4,0-2.5,0.7-3.4,2.1c-0.9,1.4-1.4,3.4-1.4,6v8.1h-1.5V22.4h1.5v3.8
			h0.1c0.4-1.3,1-2.3,1.9-3.1c0.9-0.7,1.8-1.1,3-1.1c0.6,0,1.2,0.1,1.7,0.3V24.1z"/>
		<path class="st0" d="M134.5,17.1v9.9h8.9v1.5h-8.9v11.3h-1.7V15.5h11.3v1.5H134.5z"/>
		<path class="st0" d="M155.4,40.1c-2.5,0-4.5-0.8-6-2.5c-1.5-1.7-2.2-3.8-2.2-6.5c0-2.9,0.8-5.1,2.3-6.7c1.5-1.6,3.6-2.4,6.1-2.4
			c2.5,0,4.4,0.8,5.8,2.4c1.4,1.6,2.1,3.8,2.1,6.7c0,2.7-0.7,4.9-2.2,6.5C160,39.3,158,40.1,155.4,40.1z M155.6,23.4
			c-2,0-3.7,0.7-4.9,2.1c-1.2,1.4-1.8,3.3-1.8,5.7c0,2.3,0.6,4.1,1.8,5.4c1.2,1.4,2.8,2.1,4.8,2.1c2.1,0,3.7-0.7,4.8-2
			c1.1-1.3,1.7-3.2,1.7-5.6c0-2.5-0.6-4.4-1.7-5.7C159.2,24.1,157.6,23.4,155.6,23.4z"/>
		<path class="st0" d="M176,24.1c-0.5-0.4-1.1-0.6-1.8-0.6c-1.4,0-2.5,0.7-3.4,2.1c-0.9,1.4-1.4,3.4-1.4,6v8.1h-1.5V22.4h1.5v3.8
			h0.1c0.4-1.3,1-2.3,1.9-3.1c0.9-0.7,1.8-1.1,3-1.1c0.6,0,1.2,0.1,1.7,0.3V24.1z"/>
		<path class="st0" d="M200.6,39.7V29.3c0-2.2-0.3-3.7-1-4.6c-0.7-0.9-1.8-1.3-3.2-1.3c-1.4,0-2.5,0.6-3.5,1.8
			c-1,1.2-1.5,2.6-1.5,4.4v10.1h-1.6V29.2c0-3.8-1.5-5.8-4.4-5.8c-1.4,0-2.6,0.6-3.5,1.8c-0.9,1.2-1.4,2.7-1.4,4.6v10H179V22.4h1.6
			v2.9h0.1c1.2-2.2,3-3.3,5.3-3.3c1.3,0,2.3,0.4,3.2,1.1c0.9,0.7,1.5,1.7,1.8,2.9c0.5-1.2,1.3-2.2,2.3-2.9c1-0.7,2.1-1,3.3-1
			c3.8,0,5.7,2.3,5.7,7v10.7H200.6z"/>
	</g>
</g>
</svg>
