<?xml version="1.0" encoding="utf-8"?>
<!-- Generator: Adobe Illustrator 22.1.0, SVG Export Plug-In . SVG Version: 6.00 Build 0)  -->
<svg version="1.1" id="Layer_1" xmlns="http://www.w3.org/2000/svg" xmlns:xlink="http://www.w3.org/1999/xlink" x="0px" y="0px"
	 viewBox="0 0 428.6 143.4" style="enable-background:new 0 0 428.6 143.4;" xml:space="preserve">
<style type="text/css">
	.nf-logo-white{fill:#F4F4F2;}
</style>
<path class="nf-logo-white" d="M98.1,48.7H86.2c-0.9,0-1.7,0.8-1.7,1.7V65l-9.3-12.3c-1.9-2.5-4.9-4-8.1-4h-9.2c-3.1,0-5.5,2.5-5.5,5.5l0,0
	v36.4c0,3.1,2.5,5.5,5.5,5.5c0,0,0,0,0,0h11.9c0.9,0,1.7-0.8,1.7-1.7V79.7l9.3,12.4c1.9,2.6,4.9,4.1,8.1,4.1h9.2
	c3.1,0,5.5-2.5,5.5-5.5l0,0V54.2C103.6,51.2,101.1,48.7,98.1,48.7L98.1,48.7z M68.2,92.7H57.8c-1.2,0-2.2-1-2.2-2.2l0,0V59
	l12.6,16.6V92.7z M98.2,92.7h-9.4c-2.1,0-4.1-1-5.4-2.7l-27-35.3C55.8,54,56,53,56.7,52.4c0.3-0.2,0.6-0.3,1-0.3h9.4
	c2.1,0,4.1,1,5.4,2.7L99.6,90c0.6,0.7,0.5,1.7-0.3,2.3C99,92.6,98.6,92.7,98.2,92.7L98.2,92.7z M100.3,85.7L87.7,69.2V52.1h10.4
	c1.2,0,2.2,1,2.2,2.2l0,0V85.7z"/>
<path class="nf-logo-white" d="M167.1,92.1h-7.6l-18.8-21.6v21.6h-9.8V52.8h7.5l19,22.1V52.8h9.8L167.1,92.1z"/>
<path class="nf-logo-white" d="M197.6,80.6l-0.1,0.2h-19.9c0.7,2.8,3.4,4.7,6.3,4.5c1.7,0.1,3.3-0.6,4.3-2h9.2c-1.3,5.8-6.7,9.4-13.6,9.4
	c-9.2,0-15.3-6.1-15.3-14.7s6-14.6,14.9-14.6c8.2,0,14.3,5.6,14.3,14C197.8,78.5,197.7,79.6,197.6,80.6z M177.5,75.3h11.4
	c-0.3-2.8-2.7-4.9-5.6-4.7C180.5,70.5,178,72.5,177.5,75.3L177.5,75.3z"/>
<path class="nf-logo-white" d="M229.7,92.1h-9.4v-1.6c-2.3,1.4-5,2.2-7.7,2.1c-7.6,0-13.9-6.3-13.9-14.6s6.4-14.6,13.9-14.6
	c2.7,0,5.4,0.7,7.7,2.1V64h9.4V92.1z M220.4,82.4v-8.7c-1.4-1.8-3.6-2.8-5.9-2.7c-3.8,0.4-6.7,3.8-6.3,7.7c0.3,3.3,3,5.9,6.3,6.3
	C216.8,85,218.9,84.1,220.4,82.4z"/>
<path class="nf-logo-white" d="M250.9,72.5c-4.6,0.2-7.5,1.4-9.7,3.6v16h-9.4V64h9.4v3c2.7-2.3,6.1-3.6,9.7-3.5V72.5z"/>
<path class="nf-logo-white" d="M281.6,61.4v-8.6h-29.3v39.3h9.8V78.2h14.7V78c0-2.9,0.7-5.8,2.1-8.3H262v-8.3H281.6z"/>
<path class="nf-logo-white" d="M328.8,72.5c-4.6,0.2-7.5,1.4-9.6,3.6v16h-9.4V64h9.4v3c2.7-2.3,6.1-3.6,9.6-3.5V72.5z"/>
<path class="nf-logo-white" d="M376.9,76.1v16h-9.4V77.6c0-4-1.9-5.9-5-5.9c-1.7,0.1-3.3,0.9-4.3,2.3c0.1,0.7,0.1,1.4,0.1,2.1v16h-9.4V77.6
	c0-4-2-5.9-5-5.9c-1.5,0-2.8,0.7-4.2,2.5v17.9h-9.4V64h9.4v1.7c1.9-1.7,4.4-2.6,7-2.5c3.3-0.1,6.5,1.3,8.6,3.8
	c2.7-2.6,6.3-3.9,10-3.8C371.9,63.2,376.9,68.1,376.9,76.1z"/>
<path class="nf-logo-white" d="M308.6,78c0,8.6-6.4,14.9-15.2,14.9s-15.2-6.3-15.2-14.9s6.4-14.6,15.2-14.6S308.6,69.6,308.6,78z M299.8,78.1
	c0.1-3.5-2.6-6.4-6.1-6.6c-3.5-0.1-6.4,2.6-6.6,6.1c0,0.2,0,0.3,0,0.5c0,3.8,2.5,6.8,6.4,6.8S299.8,81.8,299.8,78.1L299.8,78.1z"/>
</svg>
