<?xml version="1.0" encoding="utf-8"?>
<!-- Generator: Adobe Illustrator 22.1.0, SVG Export Plug-In . SVG Version: 6.00 Build 0)  -->
<svg version="1.1" id="Layer_1" xmlns="http://www.w3.org/2000/svg" xmlns:xlink="http://www.w3.org/1999/xlink" x="0px" y="0px"
	 viewBox="0 0 428.6 143.4" style="enable-background:new 0 0 428.6 143.4;" xml:space="preserve">
<style type="text/css">
	.nf-logo-blue{fill:#2165E5;}
</style>
<path class="nf-logo-blue" d="M97.8,48H85.9c-0.9,0-1.7,0.8-1.7,1.7v14.5L74.8,52c-1.9-2.5-4.9-4-8.1-4h-9.2c-3,0-5.5,2.5-5.5,5.5v36.4
	c0,3.1,2.5,5.5,5.5,5.5c0,0,0,0,0,0h11.9c0.9,0,1.7-0.8,1.7-1.7c0,0,0,0,0,0V79l9.3,12.4c1.9,2.6,4.9,4.1,8.1,4.1h9.2
	c3.1,0,5.5-2.5,5.5-5.5l0,0V53.5C103.3,50.4,100.8,48,97.8,48z M67.9,92H57.5c-1.2,0-2.2-1-2.2-2.2l0,0V58.3l12.6,16.6V92z M98,92
	h-9.5c-2.1,0-4.1-1-5.4-2.7L56.1,54c-0.6-0.7-0.4-1.7,0.3-2.3c0.3-0.2,0.6-0.3,1-0.3h9.4c2.1,0,4.1,1,5.4,2.6l27.1,35.3
	c0.6,0.7,0.5,1.7-0.2,2.3C98.8,91.9,98.4,92,98,92z M100,85L87.4,68.5V51.4h10.4c1.2,0,2.2,1,2.2,2.2V85z"/>
<path class="nf-logo-blue" d="M166.8,91.4h-7.6l-18.9-21.6v21.6h-9.8V52h7.4l19,22.1V52h9.8V91.4z"/>
<path class="nf-logo-blue" d="M197.3,79.9l-0.1,0.2h-19.9c0.7,2.8,3.4,4.7,6.3,4.5c1.7,0.1,3.3-0.6,4.3-2h9.2c-1.3,5.8-6.7,9.4-13.6,9.4
	c-9.2,0-15.3-6.1-15.3-14.7s6-14.6,14.9-14.6c8.2,0,14.3,5.6,14.3,14C197.5,77.8,197.4,78.8,197.3,79.9z M177.2,74.6h11.4
	c-0.3-2.8-2.7-4.9-5.6-4.7C180.2,69.8,177.7,71.8,177.2,74.6z"/>
<path class="nf-logo-blue" d="M229.4,91.4h-9.4v-1.6c-2.3,1.4-5,2.2-7.7,2.1c-7.6,0-13.9-6.3-13.9-14.6s6.4-14.6,13.9-14.6
	c2.7,0,5.4,0.7,7.7,2.1v-1.5h9.4V91.4z M220.1,81.6V73c-1.4-1.7-3.6-2.7-5.8-2.7c-3.8,0.4-6.7,3.8-6.3,7.6c0.3,3.4,3,6,6.3,6.3
	C216.5,84.4,218.6,83.4,220.1,81.6z"/>
<path class="nf-logo-blue" d="M250.6,71.8c-4.6,0.2-7.5,1.4-9.7,3.6v16h-9.4v-28h9.4v3c2.7-2.3,6.1-3.6,9.7-3.5L250.6,71.8z"/>
<path class="nf-logo-blue" d="M281.3,60.6V52H252v39.3h9.8V77.5h14.7v-0.2c0-2.9,0.7-5.8,2.1-8.3h-16.8v-8.3H281.3z"/>
<path class="nf-logo-blue" d="M328.5,71.8c-4.6,0.2-7.5,1.4-9.6,3.6v16h-9.4v-28h9.4v3c2.7-2.3,6.1-3.6,9.6-3.5V71.8z"/>
<path class="nf-logo-blue" d="M376.6,75.3v16h-9.4V76.8c0-4-1.9-5.9-5-5.9c-1.7,0.1-3.3,0.9-4.3,2.3c0.1,0.7,0.1,1.4,0.1,2.1v16h-9.4V76.8
	c0-4-2-5.9-5-5.9c-1.5,0-2.8,0.7-4.2,2.5v17.9H330v-28h9.4V65c1.9-1.7,4.4-2.6,7-2.5c3.3-0.1,6.5,1.3,8.6,3.7
	c2.7-2.5,6.3-3.9,10-3.7C371.6,62.4,376.6,67.4,376.6,75.3z"/>
<path class="nf-logo-blue" d="M308.3,77.3c0,8.6-6.4,14.9-15.2,14.9s-15.2-6.4-15.2-14.9s6.4-14.6,15.2-14.6S308.3,68.9,308.3,77.3z
	 M299.5,77.3c0.1-3.5-2.6-6.4-6.1-6.6c-3.5-0.1-6.4,2.6-6.6,6.1c0,0.2,0,0.3,0,0.5c0,3.8,2.5,6.8,6.4,6.8S299.5,81.1,299.5,77.3
	L299.5,77.3z"/>
</svg>
